<mxfile host="65bd71144e" modified="2021-03-11T11:48:19.431Z" agent="5.0 (Macintosh; Intel Mac OS X 11_0_1) AppleWebKit/537.36 (KHTML, like Gecko) Code/1.54.1 Chrome/87.0.4280.141 Electron/11.3.0 Safari/537.36" etag="nvZOG18LAnzrZ9zNpxJj" version="14.2.4" type="embed" pages="3">
    <diagram name="overlap" id="YaGknYgtB12gMBrLqmoP">
        <mxGraphModel dx="861" dy="679" grid="1" gridSize="10" guides="1" tooltips="1" connect="1" arrows="1" fold="1" page="1" pageScale="1" pageWidth="827" pageHeight="1169" background="#ffffff" math="0" shadow="0">
            <root>
                <mxCell id="Y0N-j38Ntg_7QfY7S-ST-0"/>
                <mxCell id="Y0N-j38Ntg_7QfY7S-ST-1" parent="Y0N-j38Ntg_7QfY7S-ST-0"/>
                <mxCell id="Y0N-j38Ntg_7QfY7S-ST-32" value="" style="rounded=0;whiteSpace=wrap;html=1;dashed=1;strokeColor=#B85450;strokeWidth=3;fillColor=none;" vertex="1" parent="Y0N-j38Ntg_7QfY7S-ST-1">
                    <mxGeometry x="370" y="280" width="220" height="240" as="geometry"/>
                </mxCell>
                <mxCell id="Y0N-j38Ntg_7QfY7S-ST-2" value="&lt;font style=&quot;font-size: 16px&quot;&gt;1&lt;/font&gt;" style="rounded=0;whiteSpace=wrap;html=1;strokeWidth=2;fillColor=#fff2cc;strokeColor=#d6b656;" vertex="1" parent="Y0N-j38Ntg_7QfY7S-ST-1">
                    <mxGeometry x="200" y="320" width="40" height="40" as="geometry"/>
                </mxCell>
                <mxCell id="Y0N-j38Ntg_7QfY7S-ST-3" value="&lt;font style=&quot;font-size: 16px&quot;&gt;Level - k&lt;/font&gt;" style="text;html=1;align=left;verticalAlign=middle;resizable=0;points=[];autosize=1;fontSize=14;" vertex="1" parent="Y0N-j38Ntg_7QfY7S-ST-1">
                    <mxGeometry x="80" y="330" width="80" height="20" as="geometry"/>
                </mxCell>
                <mxCell id="Y0N-j38Ntg_7QfY7S-ST-4" value="&lt;font style=&quot;font-size: 16px&quot;&gt;Level - k+1&lt;/font&gt;" style="text;html=1;align=left;verticalAlign=middle;resizable=0;points=[];autosize=1;fontSize=14;" vertex="1" parent="Y0N-j38Ntg_7QfY7S-ST-1">
                    <mxGeometry x="80" y="450" width="90" height="20" as="geometry"/>
                </mxCell>
                <mxCell id="Y0N-j38Ntg_7QfY7S-ST-5" value="&lt;span style=&quot;font-size: 16px&quot;&gt;2&lt;/span&gt;" style="rounded=0;whiteSpace=wrap;html=1;strokeWidth=2;fillColor=#fff2cc;strokeColor=#d6b656;" vertex="1" parent="Y0N-j38Ntg_7QfY7S-ST-1">
                    <mxGeometry x="240" y="320" width="40" height="40" as="geometry"/>
                </mxCell>
                <mxCell id="Y0N-j38Ntg_7QfY7S-ST-6" value="&lt;span style=&quot;font-size: 16px&quot;&gt;3&lt;/span&gt;" style="rounded=0;whiteSpace=wrap;html=1;strokeWidth=2;fillColor=#fff2cc;strokeColor=#d6b656;" vertex="1" parent="Y0N-j38Ntg_7QfY7S-ST-1">
                    <mxGeometry x="280" y="320" width="40" height="40" as="geometry"/>
                </mxCell>
                <mxCell id="Y0N-j38Ntg_7QfY7S-ST-7" value="&lt;span style=&quot;font-size: 16px&quot;&gt;4&lt;/span&gt;" style="rounded=0;whiteSpace=wrap;html=1;strokeWidth=2;fillColor=#fff2cc;strokeColor=#d6b656;" vertex="1" parent="Y0N-j38Ntg_7QfY7S-ST-1">
                    <mxGeometry x="320" y="320" width="40" height="40" as="geometry"/>
                </mxCell>
                <mxCell id="Y0N-j38Ntg_7QfY7S-ST-8" value="&lt;font style=&quot;font-size: 16px&quot;&gt;16&lt;/font&gt;" style="rounded=0;whiteSpace=wrap;html=1;strokeWidth=2;fillColor=#fff2cc;strokeColor=#d6b656;" vertex="1" parent="Y0N-j38Ntg_7QfY7S-ST-1">
                    <mxGeometry x="380" y="440" width="40" height="40" as="geometry"/>
                </mxCell>
                <mxCell id="Y0N-j38Ntg_7QfY7S-ST-9" value="&lt;span style=&quot;font-size: 16px&quot;&gt;17&lt;/span&gt;" style="rounded=0;whiteSpace=wrap;html=1;strokeWidth=2;fillColor=#fff2cc;strokeColor=#d6b656;" vertex="1" parent="Y0N-j38Ntg_7QfY7S-ST-1">
                    <mxGeometry x="420" y="440" width="40" height="40" as="geometry"/>
                </mxCell>
                <mxCell id="Y0N-j38Ntg_7QfY7S-ST-10" value="&lt;font style=&quot;font-size: 16px&quot;&gt;18&lt;/font&gt;" style="rounded=0;whiteSpace=wrap;html=1;strokeWidth=2;fillColor=#fff2cc;strokeColor=#d6b656;" vertex="1" parent="Y0N-j38Ntg_7QfY7S-ST-1">
                    <mxGeometry x="460" y="440" width="40" height="40" as="geometry"/>
                </mxCell>
                <mxCell id="Y0N-j38Ntg_7QfY7S-ST-11" value="&lt;font style=&quot;font-size: 16px&quot;&gt;19&lt;/font&gt;" style="rounded=0;whiteSpace=wrap;html=1;strokeWidth=2;fillColor=#fff2cc;strokeColor=#d6b656;" vertex="1" parent="Y0N-j38Ntg_7QfY7S-ST-1">
                    <mxGeometry x="500" y="440" width="40" height="40" as="geometry"/>
                </mxCell>
                <mxCell id="Y0N-j38Ntg_7QfY7S-ST-12" value="&lt;font style=&quot;font-size: 16px&quot;&gt;20&lt;/font&gt;" style="rounded=0;whiteSpace=wrap;html=1;strokeWidth=2;fillColor=#fff2cc;strokeColor=#d6b656;" vertex="1" parent="Y0N-j38Ntg_7QfY7S-ST-1">
                    <mxGeometry x="540" y="440" width="40" height="40" as="geometry"/>
                </mxCell>
                <mxCell id="Y0N-j38Ntg_7QfY7S-ST-13" value="&lt;span style=&quot;font-size: 16px&quot;&gt;SSTable ( k, i )&lt;/span&gt;" style="text;html=1;align=center;verticalAlign=middle;resizable=0;points=[];autosize=1;fontSize=14;" vertex="1" parent="Y0N-j38Ntg_7QfY7S-ST-1">
                    <mxGeometry x="220" y="370" width="120" height="20" as="geometry"/>
                </mxCell>
                <mxCell id="Y0N-j38Ntg_7QfY7S-ST-14" value="&lt;span style=&quot;font-size: 16px&quot;&gt;SSTable ( k+1, j )&lt;/span&gt;" style="text;html=1;align=center;verticalAlign=middle;resizable=0;points=[];autosize=1;fontSize=14;" vertex="1" parent="Y0N-j38Ntg_7QfY7S-ST-1">
                    <mxGeometry x="410" y="490" width="140" height="20" as="geometry"/>
                </mxCell>
                <mxCell id="Y0N-j38Ntg_7QfY7S-ST-18" value="&lt;font style=&quot;font-size: 16px&quot;&gt;24&lt;/font&gt;" style="rounded=0;whiteSpace=wrap;html=1;strokeWidth=2;fillColor=#fff2cc;strokeColor=#d6b656;" vertex="1" parent="Y0N-j38Ntg_7QfY7S-ST-1">
                    <mxGeometry x="520" y="320" width="40" height="40" as="geometry"/>
                </mxCell>
                <mxCell id="Y0N-j38Ntg_7QfY7S-ST-19" value="&lt;span style=&quot;font-size: 16px&quot;&gt;23&lt;/span&gt;" style="rounded=0;whiteSpace=wrap;html=1;strokeWidth=2;fillColor=#fff2cc;strokeColor=#d6b656;" vertex="1" parent="Y0N-j38Ntg_7QfY7S-ST-1">
                    <mxGeometry x="480" y="320" width="40" height="40" as="geometry"/>
                </mxCell>
                <mxCell id="Y0N-j38Ntg_7QfY7S-ST-20" value="&lt;font style=&quot;font-size: 16px&quot;&gt;12&lt;/font&gt;" style="rounded=0;whiteSpace=wrap;html=1;strokeWidth=2;fillColor=#fff2cc;strokeColor=#d6b656;" vertex="1" parent="Y0N-j38Ntg_7QfY7S-ST-1">
                    <mxGeometry x="440" y="320" width="40" height="40" as="geometry"/>
                </mxCell>
                <mxCell id="Y0N-j38Ntg_7QfY7S-ST-21" value="&lt;font style=&quot;font-size: 16px&quot;&gt;11&lt;/font&gt;" style="rounded=0;whiteSpace=wrap;html=1;strokeWidth=2;fillColor=#fff2cc;strokeColor=#d6b656;" vertex="1" parent="Y0N-j38Ntg_7QfY7S-ST-1">
                    <mxGeometry x="400" y="320" width="40" height="40" as="geometry"/>
                </mxCell>
                <mxCell id="Y0N-j38Ntg_7QfY7S-ST-22" value="&lt;font style=&quot;font-size: 16px&quot;&gt;34&lt;/font&gt;" style="rounded=0;whiteSpace=wrap;html=1;strokeWidth=2;fillColor=#fff2cc;strokeColor=#d6b656;" vertex="1" parent="Y0N-j38Ntg_7QfY7S-ST-1">
                    <mxGeometry x="720" y="320" width="40" height="40" as="geometry"/>
                </mxCell>
                <mxCell id="Y0N-j38Ntg_7QfY7S-ST-23" value="&lt;span style=&quot;font-size: 16px&quot;&gt;33&lt;/span&gt;" style="rounded=0;whiteSpace=wrap;html=1;strokeWidth=2;fillColor=#fff2cc;strokeColor=#d6b656;" vertex="1" parent="Y0N-j38Ntg_7QfY7S-ST-1">
                    <mxGeometry x="680" y="320" width="40" height="40" as="geometry"/>
                </mxCell>
                <mxCell id="Y0N-j38Ntg_7QfY7S-ST-24" value="&lt;font style=&quot;font-size: 16px&quot;&gt;32&lt;/font&gt;" style="rounded=0;whiteSpace=wrap;html=1;strokeWidth=2;fillColor=#fff2cc;strokeColor=#d6b656;" vertex="1" parent="Y0N-j38Ntg_7QfY7S-ST-1">
                    <mxGeometry x="640" y="320" width="40" height="40" as="geometry"/>
                </mxCell>
                <mxCell id="Y0N-j38Ntg_7QfY7S-ST-25" value="&lt;font style=&quot;font-size: 16px&quot;&gt;31&lt;/font&gt;" style="rounded=0;whiteSpace=wrap;html=1;strokeWidth=2;fillColor=#fff2cc;strokeColor=#d6b656;" vertex="1" parent="Y0N-j38Ntg_7QfY7S-ST-1">
                    <mxGeometry x="600" y="320" width="40" height="40" as="geometry"/>
                </mxCell>
                <mxCell id="Y0N-j38Ntg_7QfY7S-ST-26" value="&lt;span style=&quot;font-size: 16px&quot;&gt;SSTable ( k, i+1 )&lt;/span&gt;" style="text;html=1;align=center;verticalAlign=middle;resizable=0;points=[];autosize=1;fontSize=14;" vertex="1" parent="Y0N-j38Ntg_7QfY7S-ST-1">
                    <mxGeometry x="410" y="370" width="140" height="20" as="geometry"/>
                </mxCell>
                <mxCell id="Y0N-j38Ntg_7QfY7S-ST-27" value="&lt;span style=&quot;font-size: 16px&quot;&gt;SSTable ( k, i+2 )&lt;/span&gt;" style="text;html=1;align=center;verticalAlign=middle;resizable=0;points=[];autosize=1;fontSize=14;" vertex="1" parent="Y0N-j38Ntg_7QfY7S-ST-1">
                    <mxGeometry x="610" y="370" width="140" height="20" as="geometry"/>
                </mxCell>
                <mxCell id="MBkMVxxBDvs31ZcVRK1i-1" value="&lt;span style=&quot;font-size: 16px&quot;&gt;[ 11, 24 ]&lt;/span&gt;" style="text;html=1;align=left;verticalAlign=middle;resizable=0;points=[];autosize=1;fontSize=14;fontColor=#B85450;" vertex="1" parent="Y0N-j38Ntg_7QfY7S-ST-1">
                    <mxGeometry x="610" y="420" width="80" height="20" as="geometry"/>
                </mxCell>
                <mxCell id="MBkMVxxBDvs31ZcVRK1i-2" value="&lt;span style=&quot;font-size: 16px&quot;&gt;[ 16, 20 ]&lt;/span&gt;" style="text;html=1;align=left;verticalAlign=middle;resizable=0;points=[];autosize=1;fontSize=14;fontColor=#B85450;" vertex="1" parent="Y0N-j38Ntg_7QfY7S-ST-1">
                    <mxGeometry x="610" y="460" width="80" height="20" as="geometry"/>
                </mxCell>
                <mxCell id="MBkMVxxBDvs31ZcVRK1i-3" value="" style="shape=curlyBracket;whiteSpace=wrap;html=1;rounded=1;strokeColor=#B85450;strokeWidth=2;fillColor=none;fontColor=#B85450;rotation=-180;" vertex="1" parent="Y0N-j38Ntg_7QfY7S-ST-1">
                    <mxGeometry x="690" y="420" width="20" height="60" as="geometry"/>
                </mxCell>
                <mxCell id="MBkMVxxBDvs31ZcVRK1i-4" value="&lt;span style=&quot;font-size: 16px&quot;&gt;[ 16, 20 ]&lt;/span&gt;" style="text;html=1;align=left;verticalAlign=middle;resizable=0;points=[];autosize=1;fontSize=14;fontColor=#B85450;" vertex="1" parent="Y0N-j38Ntg_7QfY7S-ST-1">
                    <mxGeometry x="720" y="440" width="80" height="20" as="geometry"/>
                </mxCell>
                <mxCell id="MBkMVxxBDvs31ZcVRK1i-5" value="&lt;span style=&quot;font-size: 16px&quot;&gt;overlap&lt;/span&gt;" style="text;html=1;align=center;verticalAlign=middle;resizable=0;points=[];autosize=1;fontSize=14;fontColor=#B85450;" vertex="1" parent="Y0N-j38Ntg_7QfY7S-ST-1">
                    <mxGeometry x="720" y="460" width="70" height="20" as="geometry"/>
                </mxCell>
            </root>
        </mxGraphModel>
    </diagram>
    <diagram id="lYho0oUHF8I51m_rreC3" name="seek-miss">
        <mxGraphModel dx="861" dy="679" grid="1" gridSize="10" guides="1" tooltips="1" connect="1" arrows="1" fold="1" page="1" pageScale="1" pageWidth="827" pageHeight="1169" background="#ffffff" math="0" shadow="0">
            <root>
                <mxCell id="0"/>
                <mxCell id="1" parent="0"/>
                <mxCell id="2" value="&lt;font style=&quot;font-size: 16px&quot;&gt;1&lt;/font&gt;" style="rounded=0;whiteSpace=wrap;html=1;strokeWidth=2;fillColor=#fff2cc;strokeColor=#d6b656;" parent="1" vertex="1">
                    <mxGeometry x="200" y="320" width="40" height="40" as="geometry"/>
                </mxCell>
                <mxCell id="3" value="&lt;font style=&quot;font-size: 16px&quot;&gt;Level - k&lt;/font&gt;" style="text;html=1;align=left;verticalAlign=middle;resizable=0;points=[];autosize=1;fontSize=14;" parent="1" vertex="1">
                    <mxGeometry x="80" y="330" width="80" height="20" as="geometry"/>
                </mxCell>
                <mxCell id="4" value="&lt;font style=&quot;font-size: 16px&quot;&gt;Level - k+1&lt;/font&gt;" style="text;html=1;align=left;verticalAlign=middle;resizable=0;points=[];autosize=1;fontSize=14;" parent="1" vertex="1">
                    <mxGeometry x="80" y="450" width="90" height="20" as="geometry"/>
                </mxCell>
                <mxCell id="6" value="&lt;span style=&quot;font-size: 16px&quot;&gt;2&lt;/span&gt;" style="rounded=0;whiteSpace=wrap;html=1;strokeWidth=2;fillColor=#fff2cc;strokeColor=#d6b656;" parent="1" vertex="1">
                    <mxGeometry x="240" y="320" width="40" height="40" as="geometry"/>
                </mxCell>
                <mxCell id="7" value="&lt;span style=&quot;font-size: 16px&quot;&gt;3&lt;/span&gt;" style="rounded=0;whiteSpace=wrap;html=1;strokeWidth=2;fillColor=#fff2cc;strokeColor=#d6b656;" parent="1" vertex="1">
                    <mxGeometry x="280" y="320" width="40" height="40" as="geometry"/>
                </mxCell>
                <mxCell id="8" value="&lt;span style=&quot;font-size: 16px&quot;&gt;4&lt;/span&gt;" style="rounded=0;whiteSpace=wrap;html=1;strokeWidth=2;fillColor=#fff2cc;strokeColor=#d6b656;" parent="1" vertex="1">
                    <mxGeometry x="320" y="320" width="40" height="40" as="geometry"/>
                </mxCell>
                <mxCell id="12" value="&lt;font style=&quot;font-size: 16px&quot;&gt;16&lt;/font&gt;" style="rounded=0;whiteSpace=wrap;html=1;strokeWidth=2;fillColor=#fff2cc;strokeColor=#d6b656;" parent="1" vertex="1">
                    <mxGeometry x="380" y="440" width="40" height="40" as="geometry"/>
                </mxCell>
                <mxCell id="13" value="&lt;span style=&quot;font-size: 16px&quot;&gt;17&lt;/span&gt;" style="rounded=0;whiteSpace=wrap;html=1;strokeWidth=2;fillColor=#fff2cc;strokeColor=#d6b656;" parent="1" vertex="1">
                    <mxGeometry x="420" y="440" width="40" height="40" as="geometry"/>
                </mxCell>
                <mxCell id="14" value="&lt;font style=&quot;font-size: 16px&quot;&gt;18&lt;/font&gt;" style="rounded=0;whiteSpace=wrap;html=1;strokeWidth=2;fillColor=#fff2cc;strokeColor=#d6b656;" parent="1" vertex="1">
                    <mxGeometry x="460" y="440" width="40" height="40" as="geometry"/>
                </mxCell>
                <mxCell id="17" value="&lt;font style=&quot;font-size: 16px&quot;&gt;19&lt;/font&gt;" style="rounded=0;whiteSpace=wrap;html=1;strokeWidth=2;fillColor=#fff2cc;strokeColor=#d6b656;" parent="1" vertex="1">
                    <mxGeometry x="500" y="440" width="40" height="40" as="geometry"/>
                </mxCell>
                <mxCell id="18" value="&lt;font style=&quot;font-size: 16px&quot;&gt;20&lt;/font&gt;" style="rounded=0;whiteSpace=wrap;html=1;strokeWidth=2;fillColor=#fff2cc;strokeColor=#d6b656;" parent="1" vertex="1">
                    <mxGeometry x="540" y="440" width="40" height="40" as="geometry"/>
                </mxCell>
                <mxCell id="19" value="&lt;span style=&quot;font-size: 16px&quot;&gt;SSTable ( k, i )&lt;/span&gt;" style="text;html=1;align=center;verticalAlign=middle;resizable=0;points=[];autosize=1;fontSize=14;" parent="1" vertex="1">
                    <mxGeometry x="220" y="370" width="120" height="20" as="geometry"/>
                </mxCell>
                <mxCell id="20" value="&lt;span style=&quot;font-size: 16px&quot;&gt;SSTable ( k+1, j )&lt;/span&gt;" style="text;html=1;align=center;verticalAlign=middle;resizable=0;points=[];autosize=1;fontSize=14;" parent="1" vertex="1">
                    <mxGeometry x="410" y="490" width="140" height="20" as="geometry"/>
                </mxCell>
                <mxCell id="21" value="&lt;span style=&quot;font-size: 16px&quot;&gt;look up : 18&lt;/span&gt;" style="text;html=1;align=left;verticalAlign=middle;resizable=0;points=[];autosize=1;fontSize=14;" parent="1" vertex="1">
                    <mxGeometry x="80" y="240" width="100" height="20" as="geometry"/>
                </mxCell>
                <mxCell id="24" value="&lt;span style=&quot;font-size: 16px&quot;&gt;seek miss&lt;/span&gt;" style="text;html=1;align=center;verticalAlign=middle;resizable=0;points=[];autosize=1;fontSize=14;fontColor=#B85450;" parent="1" vertex="1">
                    <mxGeometry x="480" y="300" width="90" height="20" as="geometry"/>
                </mxCell>
                <mxCell id="26" value="&lt;span style=&quot;font-size: 16px&quot;&gt;match&lt;/span&gt;" style="text;html=1;align=center;verticalAlign=middle;resizable=0;points=[];autosize=1;fontSize=14;fontColor=#B85450;" parent="1" vertex="1">
                    <mxGeometry x="480" y="420" width="60" height="20" as="geometry"/>
                </mxCell>
                <mxCell id="Nawe96tlOtOp1XnM_8qs-26" value="&lt;font style=&quot;font-size: 16px&quot;&gt;24&lt;/font&gt;" style="rounded=0;whiteSpace=wrap;html=1;strokeWidth=2;fillColor=#fff2cc;strokeColor=#d6b656;" parent="1" vertex="1">
                    <mxGeometry x="520" y="320" width="40" height="40" as="geometry"/>
                </mxCell>
                <mxCell id="Nawe96tlOtOp1XnM_8qs-27" value="&lt;span style=&quot;font-size: 16px&quot;&gt;23&lt;/span&gt;" style="rounded=0;whiteSpace=wrap;html=1;strokeWidth=2;fillColor=#fff2cc;strokeColor=#d6b656;" parent="1" vertex="1">
                    <mxGeometry x="480" y="320" width="40" height="40" as="geometry"/>
                </mxCell>
                <mxCell id="Nawe96tlOtOp1XnM_8qs-28" value="&lt;font style=&quot;font-size: 16px&quot;&gt;12&lt;/font&gt;" style="rounded=0;whiteSpace=wrap;html=1;strokeWidth=2;fillColor=#fff2cc;strokeColor=#d6b656;" parent="1" vertex="1">
                    <mxGeometry x="440" y="320" width="40" height="40" as="geometry"/>
                </mxCell>
                <mxCell id="Nawe96tlOtOp1XnM_8qs-29" value="&lt;font style=&quot;font-size: 16px&quot;&gt;11&lt;/font&gt;" style="rounded=0;whiteSpace=wrap;html=1;strokeWidth=2;fillColor=#fff2cc;strokeColor=#d6b656;" parent="1" vertex="1">
                    <mxGeometry x="400" y="320" width="40" height="40" as="geometry"/>
                </mxCell>
                <mxCell id="Nawe96tlOtOp1XnM_8qs-30" value="&lt;font style=&quot;font-size: 16px&quot;&gt;34&lt;/font&gt;" style="rounded=0;whiteSpace=wrap;html=1;strokeWidth=2;fillColor=#fff2cc;strokeColor=#d6b656;" parent="1" vertex="1">
                    <mxGeometry x="720" y="320" width="40" height="40" as="geometry"/>
                </mxCell>
                <mxCell id="Nawe96tlOtOp1XnM_8qs-31" value="&lt;span style=&quot;font-size: 16px&quot;&gt;33&lt;/span&gt;" style="rounded=0;whiteSpace=wrap;html=1;strokeWidth=2;fillColor=#fff2cc;strokeColor=#d6b656;" parent="1" vertex="1">
                    <mxGeometry x="680" y="320" width="40" height="40" as="geometry"/>
                </mxCell>
                <mxCell id="Nawe96tlOtOp1XnM_8qs-32" value="&lt;font style=&quot;font-size: 16px&quot;&gt;32&lt;/font&gt;" style="rounded=0;whiteSpace=wrap;html=1;strokeWidth=2;fillColor=#fff2cc;strokeColor=#d6b656;" parent="1" vertex="1">
                    <mxGeometry x="640" y="320" width="40" height="40" as="geometry"/>
                </mxCell>
                <mxCell id="Nawe96tlOtOp1XnM_8qs-33" value="&lt;font style=&quot;font-size: 16px&quot;&gt;31&lt;/font&gt;" style="rounded=0;whiteSpace=wrap;html=1;strokeWidth=2;fillColor=#fff2cc;strokeColor=#d6b656;" parent="1" vertex="1">
                    <mxGeometry x="600" y="320" width="40" height="40" as="geometry"/>
                </mxCell>
                <mxCell id="fV7hkCOTCyFw0kWYfNcf-26" value="&lt;span style=&quot;font-size: 16px&quot;&gt;SSTable ( k, i+1 )&lt;/span&gt;" style="text;html=1;align=center;verticalAlign=middle;resizable=0;points=[];autosize=1;fontSize=14;" parent="1" vertex="1">
                    <mxGeometry x="410" y="370" width="140" height="20" as="geometry"/>
                </mxCell>
                <mxCell id="fV7hkCOTCyFw0kWYfNcf-27" value="&lt;span style=&quot;font-size: 16px&quot;&gt;SSTable ( k, i+2 )&lt;/span&gt;" style="text;html=1;align=center;verticalAlign=middle;resizable=0;points=[];autosize=1;fontSize=14;" parent="1" vertex="1">
                    <mxGeometry x="610" y="370" width="140" height="20" as="geometry"/>
                </mxCell>
                <mxCell id="25" style="edgeStyle=orthogonalEdgeStyle;curved=1;rounded=0;orthogonalLoop=1;jettySize=auto;html=1;exitX=1;exitY=0;exitDx=0;exitDy=0;entryX=0.5;entryY=0;entryDx=0;entryDy=0;strokeWidth=2;fontSize=14;fontColor=#B85450;fillColor=#f8cecc;strokeColor=#b85450;" parent="1" source="Nawe96tlOtOp1XnM_8qs-28" target="14" edge="1">
                    <mxGeometry relative="1" as="geometry">
                        <Array as="points">
                            <mxPoint x="480" y="370"/>
                            <mxPoint x="480" y="370"/>
                        </Array>
                    </mxGeometry>
                </mxCell>
                <mxCell id="23" value="" style="rounded=0;orthogonalLoop=1;jettySize=auto;html=1;fontSize=14;entryX=0;entryY=0;entryDx=0;entryDy=0;fillColor=#f8cecc;strokeColor=#b85450;strokeWidth=2;edgeStyle=orthogonalEdgeStyle;curved=1;" parent="1" source="21" target="Nawe96tlOtOp1XnM_8qs-27" edge="1">
                    <mxGeometry relative="1" as="geometry">
                        <mxPoint x="250" y="250" as="targetPoint"/>
                        <Array as="points">
                            <mxPoint x="480" y="250"/>
                        </Array>
                    </mxGeometry>
                </mxCell>
            </root>
        </mxGraphModel>
    </diagram>
    <diagram id="-CH1xtE_YUNaig56oL9T" name="match">
        <mxGraphModel dx="861" dy="679" grid="1" gridSize="10" guides="1" tooltips="1" connect="1" arrows="1" fold="1" page="1" pageScale="1" pageWidth="827" pageHeight="1169" background="#ffffff" math="0" shadow="0">
            <root>
                <mxCell id="D2XivzYLDYbyv2deZ4RM-0"/>
                <mxCell id="D2XivzYLDYbyv2deZ4RM-1" parent="D2XivzYLDYbyv2deZ4RM-0"/>
                <mxCell id="T56yWqW-g0x0ERfFQjUn-0" value="&lt;font style=&quot;font-size: 16px&quot;&gt;1&lt;/font&gt;" style="rounded=0;whiteSpace=wrap;html=1;strokeWidth=2;fillColor=#fff2cc;strokeColor=#d6b656;" parent="D2XivzYLDYbyv2deZ4RM-1" vertex="1">
                    <mxGeometry x="160" y="320" width="40" height="40" as="geometry"/>
                </mxCell>
                <mxCell id="T56yWqW-g0x0ERfFQjUn-1" value="&lt;font style=&quot;font-size: 16px&quot;&gt;Level - k&lt;/font&gt;" style="text;html=1;align=left;verticalAlign=middle;resizable=0;points=[];autosize=1;fontSize=14;" parent="D2XivzYLDYbyv2deZ4RM-1" vertex="1">
                    <mxGeometry x="40" y="330" width="80" height="20" as="geometry"/>
                </mxCell>
                <mxCell id="T56yWqW-g0x0ERfFQjUn-2" value="&lt;font style=&quot;font-size: 16px&quot;&gt;Level - k+1&lt;/font&gt;" style="text;html=1;align=left;verticalAlign=middle;resizable=0;points=[];autosize=1;fontSize=14;" parent="D2XivzYLDYbyv2deZ4RM-1" vertex="1">
                    <mxGeometry x="40" y="450" width="90" height="20" as="geometry"/>
                </mxCell>
                <mxCell id="T56yWqW-g0x0ERfFQjUn-3" value="&lt;span style=&quot;font-size: 16px&quot;&gt;2&lt;/span&gt;" style="rounded=0;whiteSpace=wrap;html=1;strokeWidth=2;fillColor=#fff2cc;strokeColor=#d6b656;" parent="D2XivzYLDYbyv2deZ4RM-1" vertex="1">
                    <mxGeometry x="200" y="320" width="40" height="40" as="geometry"/>
                </mxCell>
                <mxCell id="T56yWqW-g0x0ERfFQjUn-4" value="&lt;span style=&quot;font-size: 16px&quot;&gt;3&lt;/span&gt;" style="rounded=0;whiteSpace=wrap;html=1;strokeWidth=2;fillColor=#fff2cc;strokeColor=#d6b656;" parent="D2XivzYLDYbyv2deZ4RM-1" vertex="1">
                    <mxGeometry x="240" y="320" width="40" height="40" as="geometry"/>
                </mxCell>
                <mxCell id="T56yWqW-g0x0ERfFQjUn-5" value="&lt;span style=&quot;font-size: 16px&quot;&gt;4&lt;/span&gt;" style="rounded=0;whiteSpace=wrap;html=1;strokeWidth=2;fillColor=#fff2cc;strokeColor=#d6b656;" parent="D2XivzYLDYbyv2deZ4RM-1" vertex="1">
                    <mxGeometry x="280" y="320" width="40" height="40" as="geometry"/>
                </mxCell>
                <mxCell id="T56yWqW-g0x0ERfFQjUn-6" value="&lt;font style=&quot;font-size: 16px&quot;&gt;16&lt;/font&gt;" style="rounded=0;whiteSpace=wrap;html=1;strokeWidth=2;fillColor=#fff2cc;strokeColor=#d6b656;" parent="D2XivzYLDYbyv2deZ4RM-1" vertex="1">
                    <mxGeometry x="240" y="440" width="40" height="40" as="geometry"/>
                </mxCell>
                <mxCell id="T56yWqW-g0x0ERfFQjUn-7" value="&lt;span style=&quot;font-size: 16px&quot;&gt;17&lt;/span&gt;" style="rounded=0;whiteSpace=wrap;html=1;strokeWidth=2;fillColor=#fff2cc;strokeColor=#d6b656;" parent="D2XivzYLDYbyv2deZ4RM-1" vertex="1">
                    <mxGeometry x="280" y="440" width="40" height="40" as="geometry"/>
                </mxCell>
                <mxCell id="T56yWqW-g0x0ERfFQjUn-8" value="&lt;font style=&quot;font-size: 16px&quot;&gt;18&lt;/font&gt;" style="rounded=0;whiteSpace=wrap;html=1;strokeWidth=2;fillColor=#fff2cc;strokeColor=#d6b656;" parent="D2XivzYLDYbyv2deZ4RM-1" vertex="1">
                    <mxGeometry x="320" y="440" width="40" height="40" as="geometry"/>
                </mxCell>
                <mxCell id="T56yWqW-g0x0ERfFQjUn-9" value="&lt;font style=&quot;font-size: 16px&quot;&gt;19&lt;/font&gt;" style="rounded=0;whiteSpace=wrap;html=1;strokeWidth=2;fillColor=#fff2cc;strokeColor=#d6b656;" parent="D2XivzYLDYbyv2deZ4RM-1" vertex="1">
                    <mxGeometry x="360" y="440" width="40" height="40" as="geometry"/>
                </mxCell>
                <mxCell id="T56yWqW-g0x0ERfFQjUn-10" value="&lt;font style=&quot;font-size: 16px&quot;&gt;20&lt;/font&gt;" style="rounded=0;whiteSpace=wrap;html=1;strokeWidth=2;fillColor=#fff2cc;strokeColor=#d6b656;" parent="D2XivzYLDYbyv2deZ4RM-1" vertex="1">
                    <mxGeometry x="400" y="440" width="40" height="40" as="geometry"/>
                </mxCell>
                <mxCell id="T56yWqW-g0x0ERfFQjUn-11" value="&lt;span style=&quot;font-size: 16px&quot;&gt;SSTable ( k, i )&lt;/span&gt;" style="text;html=1;align=center;verticalAlign=middle;resizable=0;points=[];autosize=1;fontSize=14;" parent="D2XivzYLDYbyv2deZ4RM-1" vertex="1">
                    <mxGeometry x="180" y="370" width="120" height="20" as="geometry"/>
                </mxCell>
                <mxCell id="T56yWqW-g0x0ERfFQjUn-12" value="&lt;span style=&quot;font-size: 16px&quot;&gt;SSTable ( k+1, j )&lt;/span&gt;" style="text;html=1;align=center;verticalAlign=middle;resizable=0;points=[];autosize=1;fontSize=14;" parent="D2XivzYLDYbyv2deZ4RM-1" vertex="1">
                    <mxGeometry x="270" y="490" width="140" height="20" as="geometry"/>
                </mxCell>
                <mxCell id="T56yWqW-g0x0ERfFQjUn-13" value="&lt;span style=&quot;font-size: 16px&quot;&gt;look up : 18&lt;/span&gt;" style="text;html=1;align=left;verticalAlign=middle;resizable=0;points=[];autosize=1;fontSize=14;" parent="D2XivzYLDYbyv2deZ4RM-1" vertex="1">
                    <mxGeometry x="40" y="240" width="100" height="20" as="geometry"/>
                </mxCell>
                <mxCell id="T56yWqW-g0x0ERfFQjUn-16" value="" style="rounded=0;orthogonalLoop=1;jettySize=auto;html=1;fontSize=14;fillColor=#f8cecc;strokeColor=#b85450;strokeWidth=2;edgeStyle=orthogonalEdgeStyle;curved=1;entryX=0.5;entryY=0;entryDx=0;entryDy=0;" parent="D2XivzYLDYbyv2deZ4RM-1" source="T56yWqW-g0x0ERfFQjUn-13" target="T56yWqW-g0x0ERfFQjUn-8" edge="1">
                    <mxGeometry relative="1" as="geometry">
                        <mxPoint x="350" y="400" as="targetPoint"/>
                        <Array as="points">
                            <mxPoint x="340" y="240"/>
                        </Array>
                    </mxGeometry>
                </mxCell>
                <mxCell id="T56yWqW-g0x0ERfFQjUn-17" value="&lt;span style=&quot;font-size: 16px&quot;&gt;match&lt;/span&gt;" style="text;html=1;align=center;verticalAlign=middle;resizable=0;points=[];autosize=1;fontSize=14;fontColor=#B85450;" parent="D2XivzYLDYbyv2deZ4RM-1" vertex="1">
                    <mxGeometry x="340" y="420" width="60" height="20" as="geometry"/>
                </mxCell>
                <mxCell id="T56yWqW-g0x0ERfFQjUn-18" value="&lt;font style=&quot;font-size: 16px&quot;&gt;24&lt;/font&gt;" style="rounded=0;whiteSpace=wrap;html=1;strokeWidth=2;fillColor=#fff2cc;strokeColor=#d6b656;" parent="D2XivzYLDYbyv2deZ4RM-1" vertex="1">
                    <mxGeometry x="480" y="440" width="40" height="40" as="geometry"/>
                </mxCell>
                <mxCell id="T56yWqW-g0x0ERfFQjUn-19" value="&lt;span style=&quot;font-size: 16px&quot;&gt;23&lt;/span&gt;" style="rounded=0;whiteSpace=wrap;html=1;strokeWidth=2;fillColor=#fff2cc;strokeColor=#d6b656;" parent="D2XivzYLDYbyv2deZ4RM-1" vertex="1">
                    <mxGeometry x="440" y="440" width="40" height="40" as="geometry"/>
                </mxCell>
                <mxCell id="T56yWqW-g0x0ERfFQjUn-20" value="&lt;font style=&quot;font-size: 16px&quot;&gt;12&lt;/font&gt;" style="rounded=0;whiteSpace=wrap;html=1;strokeWidth=2;fillColor=#fff2cc;strokeColor=#d6b656;" parent="D2XivzYLDYbyv2deZ4RM-1" vertex="1">
                    <mxGeometry x="200" y="440" width="40" height="40" as="geometry"/>
                </mxCell>
                <mxCell id="T56yWqW-g0x0ERfFQjUn-21" value="&lt;font style=&quot;font-size: 16px&quot;&gt;11&lt;/font&gt;" style="rounded=0;whiteSpace=wrap;html=1;strokeWidth=2;fillColor=#fff2cc;strokeColor=#d6b656;" parent="D2XivzYLDYbyv2deZ4RM-1" vertex="1">
                    <mxGeometry x="160" y="440" width="40" height="40" as="geometry"/>
                </mxCell>
                <mxCell id="T56yWqW-g0x0ERfFQjUn-22" value="&lt;font style=&quot;font-size: 16px&quot;&gt;34&lt;/font&gt;" style="rounded=0;whiteSpace=wrap;html=1;strokeWidth=2;fillColor=#fff2cc;strokeColor=#d6b656;" parent="D2XivzYLDYbyv2deZ4RM-1" vertex="1">
                    <mxGeometry x="480" y="320" width="40" height="40" as="geometry"/>
                </mxCell>
                <mxCell id="T56yWqW-g0x0ERfFQjUn-23" value="&lt;span style=&quot;font-size: 16px&quot;&gt;33&lt;/span&gt;" style="rounded=0;whiteSpace=wrap;html=1;strokeWidth=2;fillColor=#fff2cc;strokeColor=#d6b656;" parent="D2XivzYLDYbyv2deZ4RM-1" vertex="1">
                    <mxGeometry x="440" y="320" width="40" height="40" as="geometry"/>
                </mxCell>
                <mxCell id="T56yWqW-g0x0ERfFQjUn-24" value="&lt;font style=&quot;font-size: 16px&quot;&gt;32&lt;/font&gt;" style="rounded=0;whiteSpace=wrap;html=1;strokeWidth=2;fillColor=#fff2cc;strokeColor=#d6b656;" parent="D2XivzYLDYbyv2deZ4RM-1" vertex="1">
                    <mxGeometry x="400" y="320" width="40" height="40" as="geometry"/>
                </mxCell>
                <mxCell id="T56yWqW-g0x0ERfFQjUn-25" value="&lt;font style=&quot;font-size: 16px&quot;&gt;31&lt;/font&gt;" style="rounded=0;whiteSpace=wrap;html=1;strokeWidth=2;fillColor=#fff2cc;strokeColor=#d6b656;" parent="D2XivzYLDYbyv2deZ4RM-1" vertex="1">
                    <mxGeometry x="360" y="320" width="40" height="40" as="geometry"/>
                </mxCell>
                <mxCell id="DkzT5iYbBLSiV8lustJ6-0" value="&lt;span style=&quot;font-size: 16px&quot;&gt;SSTable ( k, i+1 )&lt;/span&gt;" style="text;html=1;align=center;verticalAlign=middle;resizable=0;points=[];autosize=1;fontSize=14;" parent="D2XivzYLDYbyv2deZ4RM-1" vertex="1">
                    <mxGeometry x="370" y="370" width="140" height="20" as="geometry"/>
                </mxCell>
            </root>
        </mxGraphModel>
    </diagram>
</mxfile>